# xmcd
#
# Track frame offsets:
#	150
#	15413
#	31973
#	51191
#	68703
#	82798
#	101534
#	121432
#	129117
#	153231
#	172978
#	176264
#
# Disc length: 2541 seconds
#
# Revision: 1
# Processed by: cddbd v1.5.2PL0 Copyright (c) Steve Scherf et al.
# Submitted via: audiograbber 1.83.01
#
DISCID=8009eb0c
DTITLE=Josh Turner - I Serve A Savior
DYEAR=2018
DGENRE=Country Christmas
TTITLE0=I Saw The Light
TTITLE1=I Pray My Way Out Of Trouble
TTITLE2=Great Is Your Faithfulness
TTITLE3=Swing Low, Sweet Chariot
TTITLE4=Without Him
TTITLE5=I Serve A Savior
TTITLE6=How Great Thou Art
TTITLE7=The River (Of Happiness) (Live From Gaither Studios)
TTITLE8=Amazing Grace
TTITLE9=Long Black Train (Live From Gaither Studios)
TTITLE10=Doxology
TTITLE11=Me And God (Live From Gaither Studios)
EXTD=
EXTT0=
EXTT1=
EXTT2=
EXTT3=
EXTT4=
EXTT5=
EXTT6=
EXTT7=
EXTT8=
EXTT9=
EXTT10=
EXTT11=
PLAYORDER=
